{
	"asset":{
		"generator":"Khronos glTF Blender I/O v4.1.63",
		"version":"2.0"
	},
	"scene":0,
	"scenes":[
		{
			"name":"Scene",
			"nodes":[
				0
			]
		}
	],
	"nodes":[
		{
			"mesh":0,
			"name":"\u0426\u0438\u043b\u0456\u043d\u0434\u0440",
			"rotation":[
				0,
				-0.7071068286895752,
				-0.7071068286895752,
				0
			],
			"scale":[
				-0.4205731451511383,
				-1.475054144859314,
				-0.4205731451511383
			]
		}
	],
	"materials":[
		{
			"doubleSided":true,
			"name":"\u041c\u0430\u0442\u0435\u0440\u0456\u0430\u043b",
			"pbrMetallicRoughness":{
				"baseColorFactor":[
					0.11927536875009537,
					0.10951590538024902,
					0.10951590538024902,
					1
				],
				"metallicFactor":0,
				"roughnessFactor":0.5
			}
		},
		{
			"doubleSided":true,
			"name":"\u041c\u0430\u0442\u0435\u0440\u0456\u0430\u043b.001",
			"pbrMetallicRoughness":{
				"baseColorFactor":[
					0.800000011920929,
					0.800000011920929,
					0.800000011920929,
					1
				],
				"metallicFactor":0,
				"roughnessFactor":0.5
			}
		},
		{
			"doubleSided":true,
			"name":"\u041c\u0430\u0442\u0435\u0440\u0456\u0430\u043b.002",
			"pbrMetallicRoughness":{
				"baseColorFactor":[
					0.7981247901916504,
					0.8000000715255737,
					0.09973486512899399,
					1
				],
				"metallicFactor":0,
				"roughnessFactor":0.5
			}
		}
	],
	"meshes":[
		{
			"name":"\u0426\u0438\u043b\u0456\u043d\u0434\u0440",
			"primitives":[
				{
					"attributes":{
						"POSITION":0,
						"NORMAL":1,
						"TEXCOORD_0":2
					},
					"indices":3,
					"material":0
				},
				{
					"attributes":{
						"POSITION":4,
						"NORMAL":5,
						"TEXCOORD_0":6
					},
					"indices":7,
					"material":1
				},
				{
					"attributes":{
						"POSITION":8,
						"NORMAL":9,
						"TEXCOORD_0":10
					},
					"indices":11,
					"material":2
				}
			]
		}
	],
	"accessors":[
		{
			"bufferView":0,
			"componentType":5126,
			"count":928,
			"max":[
				1.6788536310195923,
				1,
				1.6788537502288818
			],
			"min":[
				-1.6788538694381714,
				-1.5142264366149902,
				-1.6788537502288818
			],
			"type":"VEC3"
		},
		{
			"bufferView":1,
			"componentType":5126,
			"count":928,
			"type":"VEC3"
		},
		{
			"bufferView":2,
			"componentType":5126,
			"count":928,
			"type":"VEC2"
		},
		{
			"bufferView":3,
			"componentType":5123,
			"count":1806,
			"type":"SCALAR"
		},
		{
			"bufferView":4,
			"componentType":5126,
			"count":32,
			"max":[
				0.19509032368659973,
				-0.5391866564750671,
				-0.9807852506637573
			],
			"min":[
				-0.19509032368659973,
				-0.6274027824401855,
				-1.125547170639038
			],
			"type":"VEC3"
		},
		{
			"bufferView":5,
			"componentType":5126,
			"count":32,
			"type":"VEC3"
		},
		{
			"bufferView":6,
			"componentType":5126,
			"count":32,
			"type":"VEC2"
		},
		{
			"bufferView":7,
			"componentType":5123,
			"count":48,
			"type":"SCALAR"
		},
		{
			"bufferView":8,
			"componentType":5126,
			"count":32,
			"max":[
				1.3782273530960083,
				-1.3506345748901367,
				1.3782273530960083
			],
			"min":[
				-1.3782273530960083,
				-1.3506345748901367,
				-1.3782273530960083
			],
			"type":"VEC3"
		},
		{
			"bufferView":9,
			"componentType":5126,
			"count":32,
			"type":"VEC3"
		},
		{
			"bufferView":10,
			"componentType":5126,
			"count":32,
			"type":"VEC2"
		},
		{
			"bufferView":11,
			"componentType":5123,
			"count":90,
			"type":"SCALAR"
		}
	],
	"bufferViews":[
		{
			"buffer":0,
			"byteLength":11136,
			"byteOffset":0,
			"target":34962
		},
		{
			"buffer":0,
			"byteLength":11136,
			"byteOffset":11136,
			"target":34962
		},
		{
			"buffer":0,
			"byteLength":7424,
			"byteOffset":22272,
			"target":34962
		},
		{
			"buffer":0,
			"byteLength":3612,
			"byteOffset":29696,
			"target":34963
		},
		{
			"buffer":0,
			"byteLength":384,
			"byteOffset":33308,
			"target":34962
		},
		{
			"buffer":0,
			"byteLength":384,
			"byteOffset":33692,
			"target":34962
		},
		{
			"buffer":0,
			"byteLength":256,
			"byteOffset":34076,
			"target":34962
		},
		{
			"buffer":0,
			"byteLength":96,
			"byteOffset":34332,
			"target":34963
		},
		{
			"buffer":0,
			"byteLength":384,
			"byteOffset":34428,
			"target":34962
		},
		{
			"buffer":0,
			"byteLength":384,
			"byteOffset":34812,
			"target":34962
		},
		{
			"buffer":0,
			"byteLength":256,
			"byteOffset":35196,
			"target":34962
		},
		{
			"buffer":0,
			"byteLength":180,
			"byteOffset":35452,
			"target":34963
		}
	],
	"buffers":[
		{
			"byteLength":35632,
			"uri":"flash.bin"
		}
	]
}
